<?xml version="1.0" encoding="UTF-8" standalone="no" ?>
<!DOCTYPE svg PUBLIC "-//W3C//DTD SVG 1.1//EN" "http://www.w3.org/Graphics/SVG/1.1/DTD/svg11.dtd">
<svg xmlns="http://www.w3.org/2000/svg" xmlns:xlink="http://www.w3.org/1999/xlink" version="1.1" width="1280" height="1024" viewBox="0 0 1280 1024" xml:space="preserve">
<desc>Created with Fabric.js 3.6.3</desc>
<defs>
	<linearGradient id="paint0_linear1" x1="0" y1="0" x2="1" y2="40" gradientUnits="userSpaceOnUse">
									<stop class="color1" offset="0" stop-color="#29E85E"/>
		<stop class="color2" offset="1" stop-color="#309F5F"/>
								</linearGradient>
</defs>
<g transform="matrix(1.9662058371735787 0 0 1.9662058371735787 640.2456813819576 512.1966205837173)" id="background-logo"  >
<rect style="stroke: none; stroke-width: 1; stroke-dasharray: none; stroke-linecap: butt; stroke-dashoffset: 0; stroke-linejoin: miter; stroke-miterlimit: 4; fill: url(#paint0_linear1); fill-opacity: 0; fill-rule: nonzero; opacity: 1;"  paint-order="stroke"  x="-325" y="-260" rx="0" ry="0" width="650" height="520" />
</g>
<g transform="matrix(3.5098031581893814 0 0 3.5098031581893814 640.2456813819576 512.1966205837173)" id="logo-logo"  >
<g style=""  paint-order="stroke"   >
		<g transform="matrix(1.446184596055265 0 0 -1.4461845960552653 0 2.842171e-14)"  >
<path style="stroke: none; stroke-width: 1; stroke-dasharray: none; stroke-linecap: butt; stroke-dashoffset: 0; stroke-linejoin: miter; stroke-miterlimit: 4; fill: #4a4063; fill-rule: nonzero; opacity: 1;"  paint-order="stroke"  transform=" translate(52.27139928727837, 0.695999999999998)" d="m 0 0 l -44.71 -10.123 l 4.851 19.924 l 47.528 8.147 z m -1.124 -76.923 l -45 -10.188 v 68.465 l 45 10.188 z m -53.001 -10.415 l -59 10.567 V -8.23 l 15.947 -2.857 l 43.053 -7.711 z m -72.78 107.529 l 61.002 -9.99 l 9.061 -20.385 l -27.299 4.89 l -30.51 5.464 z m 50.191 3.775 l 0.961 -4.045 l -2.94 0.481 c 0.805 1.089 1.48 2.281 1.979 3.564 m 91.424 3.133 c 0.839 2.119 0.937 4.037 0.714 5.633 c 8.026 -0.118 18.908 10.216 18.908 10.216 c 0 0 -4.334 0.644 -9.545 -0.514 c 4.479 4.412 7.312 9.432 7.312 9.432 c 0 0 -5.545 -1.494 -10.92 -4.727 c 2.695 4.606 3.598 8.891 3.598 8.891 c 0 0 -13.346 -7.307 -15.809 -15.402 c -1.457 0.521 -3.246 0.81 -5.365 0.506 L 0.532 37.455 c 7.776 15.579 9.756 29.658 4.16 32.928 c -5.107 2.984 -14.957 -3.946 -24.053 -16.14 c 2.353 1.653 7.336 3.695 13.143 -2.531 c 0 0 -10.452 3.343 -17.796 -4.291 c -0.547 -0.876 -1.089 -1.767 -1.621 -2.678 c -0.163 -0.277 -0.318 -0.555 -0.477 -0.833 c 0.445 0.486 6.759 7.05 14.566 -1.318 c 0 0 -10.003 3.204 -17.313 -3.803 c -0.752 -1.499 -1.45 -2.984 -2.091 -4.448 c 2.381 1.644 7.323 3.591 13.076 -2.577 c 0 0 -7.98 2.556 -14.894 -1.889 c -0.459 -1.231 -0.865 -2.433 -1.236 -3.611 l 1.058 8.036 l -4.85 4.328 l 0.985 7.48 l -5.212 0.688 l -2.268 0.298 l -5.214 0.686 l -0.984 -7.48 l -3.019 -1.522 l -4.106 17.29 c -1.293 5.445 -5.836 9.253 -11.084 9.891 l -6.83 28.767 l -8.757 -2.08 l 6.831 -28.766 c -4.401 -2.929 -6.749 -8.374 -5.456 -13.817 l 2.152 -9.062 c -2.738 2.473 -6.354 3.991 -10.334 3.991 c -6.112 0 -11.379 -3.561 -13.88 -8.715 l -0.052 0.194 l -13.45 3.603 l -9.846 -9.846 l 0.476 -1.777 l -6.384 1.046 c -1.544 0.253 -3.093 -0.417 -3.966 -1.716 c -0.873 -1.298 -0.909 -2.985 -0.093 -4.32 l 17.162 -28.039 v -75.54 c 0 -1.938 1.388 -3.596 3.295 -3.938 l 67.001 -12 c 0.006 -0.001 0.013 -0.001 0.018 -0.002 c 0.227 -0.039 0.457 -0.06 0.687 -0.06 c 0.27 0 0.538 0.035 0.801 0.09 c 0.027 0.005 0.055 0.003 0.083 0.008 l 53 12 c 1.822 0.414 3.116 2.033 3.116 3.902 V -4.271 L 17.912 21.56 c 0.575 1.347 0.368 2.901 -0.539 4.05 c -0.666 0.842 -1.627 1.365 -2.663 1.489" stroke-linecap="round" />
</g>
		<g transform="matrix(1.446184596055265 0 0 -1.4461845960552653 -74.21877297412152 -70.34670459607398)"  >
<path style="stroke: none; stroke-width: 1; stroke-dasharray: none; stroke-linecap: butt; stroke-dashoffset: 0; stroke-linejoin: miter; stroke-miterlimit: 4; fill: #4a4063; fill-rule: nonzero; opacity: 1;"  paint-order="stroke"  transform=" translate(5.0625, -2.9547635524798155)" d="M 0 0 C 0 0 -2.75 6.25 -10.125 6 C -10.125 6 -9.25 -1 0 0" stroke-linecap="round" />
</g>
</g>
</g>
</svg>