<?xml version="1.0" encoding="UTF-8" standalone="no" ?>
<!DOCTYPE svg PUBLIC "-//W3C//DTD SVG 1.1//EN" "http://www.w3.org/Graphics/SVG/1.1/DTD/svg11.dtd">
<svg xmlns="http://www.w3.org/2000/svg" xmlns:xlink="http://www.w3.org/1999/xlink" version="1.1" width="1280" height="1024" viewBox="0 0 1280 1024" xml:space="preserve">
<desc>Created with Fabric.js 3.6.3</desc>
<defs>
</defs>
<g transform="matrix(1.9662058371735787 0 0 1.9662058371735787 640.2456813819576 512.1966205837173)" id="background-logo"  >
<rect style="stroke: none; stroke-width: 1; stroke-dasharray: none; stroke-linecap: butt; stroke-dashoffset: 0; stroke-linejoin: miter; stroke-miterlimit: 4; fill: #ffffff; fill-opacity: 0; fill-rule: nonzero; opacity: 1;"  paint-order="stroke"  x="-325" y="-260" rx="0" ry="0" width="650" height="520" />
</g>
<g transform="matrix(1.9699870022450665 0 0 1.9699870022450665 690.5305846077641 547.7870755618574)" id="text-logo-path"  >
<path style="stroke: none; stroke-width: 0; stroke-dasharray: none; stroke-linecap: butt; stroke-dashoffset: 0; stroke-linejoin: miter; stroke-miterlimit: 4; fill: #ffffff; fill-rule: nonzero; opacity: 1;"  paint-order="stroke"  transform=" translate(-325.595, 54.165000000000006)" d="M 58.67 11.55 L 49.43 8.78 L 49.66 8.09 Q 49.66 5.78 45.74 5.54 L 45.74 5.54 Q 40.89 2.54 37.08 -2.31 Q 33.26 -7.16 31.88 -10.86 L 31.88 -10.86 Q 30.26 -14.55 30.26 -14.78 L 30.26 -14.78 Q 30.26 -15.48 31.07 -15.94 Q 31.88 -16.4 33.03 -17.09 L 33.03 -17.09 Q 34.42 -18.25 36.04 -18.25 L 36.04 -18.25 Q 36.96 -18.25 37.77 -17.21 Q 38.58 -16.17 39.96 -13.63 L 39.96 -13.63 Q 42.73 -8.78 49.43 -5.89 Q 56.13 -3 64.68 -3 L 64.68 -3 Q 75.08 -3 84.08 -7.16 L 84.08 -7.16 Q 90.09 -9.7 92.86 -12.13 Q 95.63 -14.55 95.63 -17.56 L 95.63 -17.56 Q 95.63 -20.33 93.09 -24.26 L 93.09 -24.26 Q 92.4 -26.1 91.13 -27.6 Q 89.86 -29.11 87.55 -31.19 L 87.55 -31.19 Q 86.16 -32.34 82.24 -36.27 L 82.24 -36.27 Q 78.54 -37.65 74.61 -39.96 L 74.61 -39.96 L 69.76 -42.27 Q 63.53 -45.05 55.32 -51.86 Q 47.12 -58.67 44.35 -63.76 L 44.35 -63.76 Q 41.12 -66.76 39.27 -72.07 Q 37.42 -77.39 37.42 -83.62 L 37.42 -83.62 Q 37.42 -91.94 40.89 -98.87 L 40.89 -98.87 Q 43.66 -105.11 53.13 -116.19 Q 62.6 -127.28 67.68 -130.75 L 67.68 -130.75 L 73.69 -136.52 Q 73.92 -137.44 74.38 -137.56 Q 74.84 -137.68 75.08 -137.68 L 75.08 -137.68 Q 75.77 -138.14 79.93 -139.87 Q 84.08 -141.6 88.7 -145.99 L 88.7 -145.99 Q 104.41 -153.62 114 -156.96 Q 123.59 -160.31 129.82 -160.31 L 129.82 -160.31 Q 138.6 -159.85 144.72 -154.89 Q 150.84 -149.92 152 -141.83 L 152 -141.83 Q 152.46 -140.45 152.46 -137.68 L 152.46 -137.68 Q 152.46 -129.36 146.45 -119.77 Q 140.45 -110.19 132.83 -105.8 L 132.83 -105.8 Q 127.05 -103.26 124.74 -103.26 L 124.74 -103.26 Q 123.12 -103.26 122.55 -104.41 Q 121.97 -105.57 122.2 -108.11 L 122.2 -108.11 Q 122.2 -110.19 123.7 -112.84 Q 125.2 -115.5 130.52 -121.51 L 130.52 -121.51 Q 139.99 -135.14 139.99 -141.83 L 139.99 -141.83 Q 139.99 -145.76 136.52 -145.99 L 136.52 -145.99 Q 133.98 -146.69 123.7 -144.84 Q 113.42 -142.99 113.42 -141.83 L 113.42 -141.83 Q 113.42 -141.6 113.31 -141.03 Q 113.19 -140.45 112.5 -140.68 L 112.5 -140.68 Q 111.57 -140.91 95.4 -131.09 Q 79.23 -121.28 78.77 -120.12 L 78.77 -120.12 Q 78.54 -118.97 77.04 -117.69 Q 75.54 -116.42 73.46 -115.5 L 73.46 -115.5 Q 69.07 -112.96 65.37 -108.11 Q 61.68 -103.26 56.6 -94.25 L 56.6 -94.25 Q 53.82 -90.32 52.09 -85.7 Q 50.36 -81.08 50.36 -77.39 L 50.36 -77.39 Q 50.36 -74.84 51.05 -73 L 51.05 -73 Q 52.21 -69.07 58.21 -63.41 Q 64.22 -57.75 73.23 -52.44 L 73.23 -52.44 Q 85.01 -45.74 92.98 -39.39 Q 100.95 -33.03 103.03 -28.64 L 103.03 -28.64 Q 108.34 -21.25 108.34 -12.24 L 108.34 -12.24 Q 108.34 -9.01 107.65 -6.24 L 107.65 -6.24 Q 105.8 -2.31 101.87 1.5 Q 97.94 5.31 95.17 5.08 L 95.17 5.08 Q 92.86 5.78 91.25 6.81 Q 89.63 7.85 88.47 8.32 L 88.47 8.32 Q 85.93 9.93 76.35 10.97 Q 66.76 12.01 58.67 11.55 L 58.67 11.55 Z M 148.3 -12.47 L 146.92 -12.47 Q 143.45 -12.47 141.6 -14.09 L 141.6 -14.09 Q 139.75 -15.71 139.18 -16.63 Q 138.6 -17.56 138.6 -18.94 L 138.6 -18.94 Q 138.6 -19.87 140.22 -27.49 L 140.22 -27.49 L 142.3 -35.11 Q 144.61 -44.58 146.45 -50.82 L 146.45 -50.82 Q 147.38 -56.6 150.03 -63.06 Q 152.69 -69.53 153.15 -70.92 L 153.15 -70.92 Q 155 -77.62 160.31 -91.71 L 160.31 -91.71 L 167.24 -110.42 Q 175.33 -132.36 176.95 -137.21 L 176.95 -137.21 L 180.64 -147.38 Q 180.64 -151.07 184.34 -151.07 L 184.34 -151.07 Q 187.57 -151.07 189.77 -147.49 Q 191.96 -143.91 191.96 -139.29 L 191.96 -139.29 Q 191.96 -135.83 190.58 -132.59 L 190.58 -132.59 Q 187.34 -125.66 183.53 -115.15 Q 179.72 -104.64 178.56 -101.41 L 178.56 -101.41 Q 170.71 -79.23 167.24 -71.84 L 167.24 -71.84 Q 167.24 -70.92 166.55 -68.61 Q 165.86 -66.3 164.93 -64.45 L 164.93 -64.45 L 162.39 -59.37 Q 162.39 -58.67 159.85 -49.66 L 159.85 -49.66 Q 156.62 -39.73 155.93 -35.11 L 155.93 -35.11 Q 157.08 -37.19 160.78 -41.46 Q 164.47 -45.74 167.71 -48.51 L 167.71 -48.51 Q 180.41 -59.37 183.41 -61.45 L 183.41 -61.45 Q 186.19 -63.06 188.03 -64.45 Q 189.88 -65.84 190.58 -66.3 L 190.58 -66.3 Q 190.58 -67.45 193.12 -67.45 L 193.12 -67.45 Q 194.04 -67.45 194.16 -67.68 Q 194.27 -67.91 194.27 -68.84 L 194.27 -68.84 Q 194.27 -70.45 199.58 -71.73 Q 204.9 -73 209.06 -73 L 209.06 -73 Q 211.83 -73 213.44 -71.84 Q 215.06 -70.69 217.6 -66.76 L 217.6 -66.76 Q 221.53 -61.22 221.53 -54.75 L 221.53 -54.75 Q 221.53 -51.05 220.14 -47.12 L 220.14 -47.12 Q 220.14 -45.28 219.57 -41.46 Q 218.99 -37.65 218.99 -34.88 L 218.99 -34.88 L 217.6 -27.49 L 221.3 -27.49 Q 222.92 -27.49 224.42 -27.03 Q 225.92 -26.57 226.38 -26.33 L 226.38 -26.33 Q 228.46 -23.79 230.08 -23.79 L 230.08 -23.79 Q 232.16 -23.79 232.16 -22.18 L 232.16 -22.18 Q 232.16 -21.25 231.23 -19.87 Q 230.31 -18.48 228.69 -17.56 L 228.69 -17.56 Q 222.68 -13.86 218.53 -13.86 L 218.53 -13.86 Q 214.6 -13.86 210.44 -17.56 L 210.44 -17.56 Q 205.36 -22.64 205.36 -29.8 L 205.36 -29.8 Q 205.36 -33.5 206.75 -38.58 L 206.75 -38.58 L 207.44 -45.97 Q 207.9 -51.51 207.9 -52.9 L 207.9 -52.9 Q 207.9 -58.21 205.36 -58.21 L 205.36 -58.21 Q 202.13 -58.21 193 -52.55 Q 183.88 -46.89 174.17 -38.46 Q 164.47 -30.03 158.7 -21.48 L 158.7 -21.48 Q 155.23 -17.09 152.81 -14.9 Q 150.38 -12.71 148.3 -12.47 L 148.3 -12.47 Z M 272.12 -101.18 Q 270.5 -102.8 269.35 -106.72 Q 268.19 -110.65 269.35 -110.65 L 269.35 -110.65 Q 271.19 -110.88 273.62 -114.69 Q 276.05 -118.5 275.81 -121.04 L 275.81 -121.04 Q 275.81 -121.97 276.51 -122.78 Q 277.2 -123.59 278.12 -123.82 L 278.12 -123.82 Q 279.97 -124.97 281.36 -124.97 L 281.36 -124.97 Q 285.29 -124.97 288.52 -119.43 L 288.52 -119.43 Q 289.91 -116.42 289.91 -114.11 L 289.91 -114.11 Q 289.91 -112.04 288.75 -109.84 Q 287.6 -107.65 284.59 -104.18 L 284.59 -104.18 Q 280.67 -98.87 277.2 -98.87 L 277.2 -98.87 Q 274.89 -98.87 272.12 -101.18 L 272.12 -101.18 Z M 249.71 -7.39 Q 246.48 -10.63 246.48 -16.63 L 246.48 -16.63 Q 246.48 -19.87 247.63 -22.18 L 247.63 -22.18 Q 247.63 -23.33 248.09 -24.95 Q 248.56 -26.57 248.56 -27.03 L 248.56 -27.03 Q 248.33 -28.41 250.4 -34.65 L 250.4 -34.65 Q 254.56 -43.89 261.49 -67.22 L 261.49 -67.22 Q 261.49 -68.38 262.42 -69.18 Q 263.34 -69.99 265.19 -70.22 L 265.19 -70.22 Q 267.04 -70.69 267.73 -70.69 L 267.73 -70.69 Q 269.12 -70.69 270.15 -69.65 Q 271.19 -68.61 273.04 -65.84 L 273.04 -65.84 Q 274.43 -64.45 274.43 -61.68 L 274.43 -61.68 Q 274.43 -57.29 271.43 -51.05 L 271.43 -51.05 Q 268.42 -44.35 267.5 -39.5 L 267.5 -39.5 Q 264.73 -33.26 263.11 -27.95 L 263.11 -27.95 Q 262.65 -26.57 261.72 -22.41 Q 260.8 -18.25 259.18 -15.71 L 259.18 -15.71 Q 257.8 -9.24 256.64 -6.7 Q 255.49 -4.16 254.1 -4.16 L 254.1 -4.16 Q 252.48 -4.16 249.71 -7.39 L 249.71 -7.39 Z M 281.36 51.74 L 279.51 51.98 Q 277.66 51.98 276.51 49.9 L 276.51 49.9 Q 275.35 48.28 275.35 45.97 L 275.35 45.97 Q 275.35 44.35 276.51 38.12 L 276.51 38.12 Q 279.05 28.41 279.05 24.72 L 279.05 24.72 Q 279.05 23.56 279.51 21.37 Q 279.97 19.17 280.2 17.32 L 280.2 17.32 Q 281.13 15.71 281.94 12.36 Q 282.74 9.01 282.74 6.47 L 282.74 6.47 Q 282.74 5.31 283.55 3.81 Q 284.36 2.31 285.52 1.39 L 285.52 1.39 Q 285.52 0 286.21 -2.89 Q 286.9 -5.78 287.13 -6.93 L 287.13 -6.93 Q 288.29 -13.17 296.14 -36.5 Q 304 -59.83 309.54 -74.15 L 309.54 -74.15 Q 312.08 -79.93 313.24 -84.78 Q 314.39 -89.63 314.39 -92.4 L 314.39 -92.4 Q 314.39 -93.32 314.97 -94.13 Q 315.55 -94.94 316.93 -96.33 L 316.93 -96.33 Q 318.55 -97.94 319.94 -97.94 L 319.94 -97.94 Q 321.09 -97.94 322.48 -97.02 Q 323.86 -96.1 325.25 -94.94 L 325.25 -94.94 Q 326.63 -92.86 327.44 -91.01 Q 328.25 -89.17 328.25 -87.09 L 328.25 -87.09 Q 328.25 -86.39 327.79 -82.7 L 327.79 -82.7 Q 327.79 -77.85 325.71 -74.73 Q 323.63 -71.61 324.09 -71.84 L 324.09 -71.84 Q 334.49 -76.69 342.57 -76.69 L 342.57 -76.69 Q 352.28 -76.69 357.7 -70.45 Q 363.13 -64.22 363.13 -54.29 L 363.13 -54.29 Q 363.13 -50.13 360.71 -44.24 Q 358.28 -38.35 355.97 -36.27 L 355.97 -36.27 Q 354.59 -36.27 352.28 -31.42 L 352.28 -31.42 Q 349.27 -27.72 342.34 -23.68 Q 335.41 -19.64 332.64 -20.56 L 332.64 -20.56 Q 332.41 -20.56 331.95 -20.33 Q 331.49 -20.1 331.49 -19.17 L 331.49 -19.17 Q 331.49 -18.25 323.63 -15.71 Q 315.78 -13.17 310.7 -13.17 L 310.7 -13.17 Q 307.92 -13.17 306.54 -13.51 Q 305.15 -13.86 303.77 -15.02 L 303.77 -15.02 Q 302.15 -13.4 302.15 -12.01 L 302.15 -12.01 Q 302.15 -9.47 299.84 -2.77 Q 297.53 3.93 296.14 3.93 L 296.14 3.93 Q 295.91 4.16 295.56 4.85 Q 295.22 5.54 296.14 6.47 L 296.14 6.47 Q 296.14 7.16 295.91 9.7 Q 295.68 12.24 294.76 13.63 L 294.76 13.63 Q 294.76 15.71 294.06 19.29 Q 293.37 22.87 292.45 24.72 L 292.45 24.72 Q 292.45 27.49 291.64 30.15 Q 290.83 32.8 289.91 32.8 L 289.91 32.8 Q 288.52 33.26 288.52 39.5 L 288.52 39.5 Q 288.29 45.28 286.21 48.51 Q 284.13 51.74 281.36 51.74 L 281.36 51.74 Z M 309.31 -25.41 Q 312.77 -25.41 323.28 -28.99 Q 333.8 -32.57 337.95 -36.04 L 337.95 -36.04 Q 342.8 -40.19 345.81 -44.93 Q 348.81 -49.66 348.81 -54.52 L 348.81 -54.52 Q 348.81 -58.21 346.73 -61.22 L 346.73 -61.22 Q 345.11 -63.76 341.19 -63.76 L 341.19 -63.76 Q 336.57 -63.76 330.21 -60.52 Q 323.86 -57.29 318.55 -51.98 L 318.55 -51.98 Q 314.39 -47.82 311.16 -40.08 Q 307.92 -32.34 307.92 -27.95 L 307.92 -27.95 Q 307.92 -25.41 309.31 -25.41 L 309.31 -25.41 Z M 368.68 51.74 L 366.83 51.98 Q 364.98 51.98 363.83 49.9 L 363.83 49.9 Q 362.67 48.28 362.67 45.97 L 362.67 45.97 Q 362.67 44.35 363.83 38.12 L 363.83 38.12 Q 366.37 28.41 366.37 24.72 L 366.37 24.72 Q 366.37 23.56 366.83 21.37 Q 367.29 19.17 367.52 17.32 L 367.52 17.32 Q 368.45 15.71 369.25 12.36 Q 370.06 9.01 370.06 6.47 L 370.06 6.47 Q 370.06 5.31 370.87 3.81 Q 371.68 2.31 372.83 1.39 L 372.83 1.39 Q 372.83 0 373.53 -2.89 Q 374.22 -5.78 374.45 -6.93 L 374.45 -6.93 Q 375.61 -13.17 383.46 -36.5 Q 391.31 -59.83 396.86 -74.15 L 396.86 -74.15 Q 399.4 -79.93 400.55 -84.78 Q 401.71 -89.63 401.71 -92.4 L 401.71 -92.4 Q 401.71 -93.32 402.29 -94.13 Q 402.86 -94.94 404.25 -96.33 L 404.25 -96.33 Q 405.87 -97.94 407.25 -97.94 L 407.25 -97.94 Q 408.41 -97.94 409.79 -97.02 Q 411.18 -96.1 412.57 -94.94 L 412.57 -94.94 Q 413.95 -92.86 414.76 -91.01 Q 415.57 -89.17 415.57 -87.09 L 415.57 -87.09 Q 415.57 -86.39 415.11 -82.7 L 415.11 -82.7 Q 415.11 -77.85 413.03 -74.73 Q 410.95 -71.61 411.41 -71.84 L 411.41 -71.84 Q 421.81 -76.69 429.89 -76.69 L 429.89 -76.69 Q 439.59 -76.69 445.02 -70.45 Q 450.45 -64.22 450.45 -54.29 L 450.45 -54.29 Q 450.45 -50.13 448.02 -44.24 Q 445.6 -38.35 443.29 -36.27 L 443.29 -36.27 Q 441.9 -36.27 439.59 -31.42 L 439.59 -31.42 Q 436.59 -27.72 429.66 -23.68 Q 422.73 -19.64 419.96 -20.56 L 419.96 -20.56 Q 419.73 -20.56 419.27 -20.33 Q 418.8 -20.1 418.8 -19.17 L 418.8 -19.17 Q 418.8 -18.25 410.95 -15.71 Q 403.1 -13.17 398.01 -13.17 L 398.01 -13.17 Q 395.24 -13.17 393.86 -13.51 Q 392.47 -13.86 391.08 -15.02 L 391.08 -15.02 Q 389.47 -13.4 389.47 -12.01 L 389.47 -12.01 Q 389.47 -9.47 387.16 -2.77 Q 384.85 3.93 383.46 3.93 L 383.46 3.93 Q 383.23 4.16 382.88 4.85 Q 382.54 5.54 383.46 6.47 L 383.46 6.47 Q 383.46 7.16 383.23 9.7 Q 383 12.24 382.07 13.63 L 382.07 13.63 Q 382.07 15.71 381.38 19.29 Q 380.69 22.87 379.76 24.72 L 379.76 24.72 Q 379.76 27.49 378.96 30.15 Q 378.15 32.8 377.22 32.8 L 377.22 32.8 Q 375.84 33.26 375.84 39.5 L 375.84 39.5 Q 375.61 45.28 373.53 48.51 Q 371.45 51.74 368.68 51.74 L 368.68 51.74 Z M 396.63 -25.41 Q 400.09 -25.41 410.6 -28.99 Q 421.11 -32.57 425.27 -36.04 L 425.27 -36.04 Q 430.12 -40.19 433.13 -44.93 Q 436.13 -49.66 436.13 -54.52 L 436.13 -54.52 Q 436.13 -58.21 434.05 -61.22 L 434.05 -61.22 Q 432.43 -63.76 428.51 -63.76 L 428.51 -63.76 Q 423.89 -63.76 417.53 -60.52 Q 411.18 -57.29 405.87 -51.98 L 405.87 -51.98 Q 401.71 -47.82 398.48 -40.08 Q 395.24 -32.34 395.24 -27.95 L 395.24 -27.95 Q 395.24 -25.41 396.63 -25.41 L 396.63 -25.41 Z M 505.66 -8.09 Q 499.88 -3 491.8 -3 L 491.8 -3 Q 486.02 -3 480.83 -5.78 Q 475.63 -8.55 472.16 -13.4 L 472.16 -13.4 Q 469.16 -17.09 467.78 -21.71 Q 466.39 -26.33 466.39 -33.03 L 466.39 -33.03 Q 466.39 -35.34 466.85 -42.27 L 466.85 -42.27 Q 467.54 -50.82 472.51 -60.06 Q 477.48 -69.3 484.87 -76.58 Q 492.26 -83.85 499.42 -86.63 L 499.42 -86.63 Q 503.12 -88.94 506.12 -88.94 L 506.12 -88.94 Q 507.74 -88.94 509.36 -88.7 Q 510.97 -88.47 512.82 -88.24 L 512.82 -88.24 Q 517.9 -87.55 520.56 -86.28 Q 523.22 -85.01 525.06 -82.47 L 525.06 -82.47 Q 530.84 -76.69 530.84 -69.07 L 530.84 -69.07 Q 529.91 -63.53 523.68 -56.36 Q 517.44 -49.2 508.66 -44.81 L 508.66 -44.81 Q 504.5 -43.43 499.19 -43.43 L 499.19 -43.43 Q 492.03 -43.43 487.64 -46.43 L 487.64 -46.43 Q 485.56 -47.12 484.41 -47.12 L 484.41 -47.12 Q 482.33 -47.12 481.29 -44.35 Q 480.25 -41.58 479.33 -34.19 L 479.33 -34.19 Q 479.09 -32.57 479.09 -29.57 L 479.09 -29.57 Q 479.09 -17.79 486.95 -16.63 L 486.95 -16.63 Q 492.26 -15.48 494.57 -15.48 L 494.57 -15.48 Q 497.34 -15.48 500.81 -17.32 L 500.81 -17.32 L 505.2 -19.87 Q 506.58 -20.56 507.74 -21.71 Q 508.89 -22.87 509.82 -23.79 L 509.82 -23.79 Q 510.28 -24.26 511.2 -25.29 Q 512.13 -26.33 512.94 -26.68 Q 513.74 -27.03 514.44 -27.03 L 514.44 -27.03 Q 515.36 -27.03 516.52 -25.99 Q 517.67 -24.95 518.36 -24.49 L 518.36 -24.49 Q 520.44 -24.49 519.29 -21.6 Q 518.13 -18.71 514.32 -14.9 Q 510.51 -11.09 505.66 -8.09 L 505.66 -8.09 Z M 505.43 -57.06 Q 509.36 -58.67 513.4 -62.83 Q 517.44 -66.99 517.44 -69.76 L 517.44 -69.76 Q 517.44 -72.53 515.36 -74.38 Q 513.28 -76.23 509.59 -76.23 L 509.59 -76.23 Q 506.81 -76.23 505.43 -75.77 L 505.43 -75.77 Q 502.19 -74.84 497.81 -70.8 Q 493.42 -66.76 490.18 -62.6 Q 486.95 -58.44 487.64 -57.75 L 487.64 -57.75 Q 488.8 -55.67 496.65 -55.67 L 496.65 -55.67 Q 501.96 -55.67 505.43 -57.06 L 505.43 -57.06 Z M 544.47 -8.09 Q 542.62 -9.47 541.93 -10.63 Q 541.23 -11.78 541.23 -14.09 L 541.23 -14.09 Q 541.23 -16.17 541.46 -17.56 L 541.46 -17.56 Q 542.16 -25.41 544.93 -35.8 L 544.93 -35.8 L 546.08 -40.43 Q 546.78 -46.2 554.17 -64.68 Q 561.56 -83.16 566.18 -89.86 L 566.18 -89.86 Q 568.03 -91.01 570.11 -91.01 L 570.11 -91.01 Q 573.11 -91.01 575.19 -88.94 L 575.19 -88.94 Q 576.58 -88.01 576.58 -85.47 L 576.58 -85.47 Q 576.58 -83.16 574.84 -78.66 Q 573.11 -74.15 568.95 -65.37 L 568.95 -65.37 Q 568.03 -63.53 565.83 -58.44 Q 563.64 -53.36 563.64 -52.44 L 563.64 -52.44 Q 563.64 -51.98 563.87 -51.98 L 563.87 -51.98 Q 564.33 -51.98 564.8 -52.32 Q 565.26 -52.67 565.72 -52.9 L 565.72 -52.9 Q 568.26 -57.29 578.08 -64.91 Q 587.9 -72.53 591.59 -74.38 L 591.59 -74.38 Q 593.21 -75.31 595.75 -76.23 Q 598.29 -77.15 599.21 -77.62 L 599.21 -77.62 Q 602.91 -79.46 607.99 -79.46 L 607.99 -79.46 Q 611.23 -79.46 613.65 -78.42 Q 616.08 -77.39 617 -75.31 L 617 -75.31 Q 617.23 -73.69 618.27 -72.77 Q 619.31 -71.84 619.77 -71.61 L 619.77 -71.61 Q 620.47 -71.61 620.7 -71.03 Q 620.93 -70.45 620.93 -70.22 L 620.93 -70.22 Q 620.93 -68.61 619.08 -68.26 Q 617.23 -67.91 612.38 -67.68 L 612.38 -67.68 Q 609.84 -67.45 607.07 -66.53 Q 604.3 -65.6 601.52 -64.22 L 601.52 -64.22 Q 588.59 -56.83 582.24 -52.67 Q 575.88 -48.51 569.42 -41.35 L 569.42 -41.35 Q 566.87 -38.58 562.72 -31.42 L 562.72 -31.42 Q 561.1 -29.8 559.37 -22.98 Q 557.63 -16.17 557.63 -14.55 L 557.63 -14.55 Q 557.4 -13.86 556.71 -11.9 Q 556.02 -9.93 554.63 -8.09 L 554.63 -8.09 Q 551.86 -4.39 550.01 -4.39 L 550.01 -4.39 Q 547.93 -4.39 544.47 -8.09 L 544.47 -8.09 Z" stroke-linecap="round" />
</g>
</svg>